<svg xmlns="http://www.w3.org/2000/svg" width="100" height="100" fill-rule="evenodd" clip-rule="evenodd" image-rendering="optimizeQuality" shape-rendering="geometricPrecision" text-rendering="geometricPrecision" viewBox="0 0 384 384" id="blog"><rect width="384" height="384" fill="#f58220" rx="37" ry="37"></rect><path fill="#fefefe" d="M240 256h-96c-9 0-17-7-17-16s8-16 17-16h96c9 0 16 7 16 16s-7 16-16 16zm-96-129h47c9 0 16 7 16 16s-7 16-16 16h-47c-9 0-17-7-17-16s8-16 17-16zm181 42-2-5-4-3c-5-3-30 1-37-5-4-5-5-13-7-23-2-21-4-22-7-29-12-25-44-44-66-46h-59c-47 0-85 38-85 84v99c0 47 38 85 85 85h97c47 0 85-38 85-85l1-56v-12l-1-4z"></path></svg>