<svg xmlns="http://www.w3.org/2000/svg" viewBox="0 0 48 48" id="social-media"><g data-name="Social Media"><path d="M20 16V4a4 4 0 0 0-4-4H4A4 4 0 0 0 0 4V16a4 4 0 0 0 4 4H16A4 4 0 0 0 20 16zM2 16V4A2 2 0 0 1 4 2H16a2 2 0 0 1 2 2V16a2 2 0 0 1-2 2H4A2 2 0 0 1 2 16zM44 0H32a4 4 0 0 0-4 4V16a4 4 0 0 0 4 4H44a4 4 0 0 0 4-4V4A4 4 0 0 0 44 0zm2 16a2 2 0 0 1-2 2H32a2 2 0 0 1-2-2V4a2 2 0 0 1 2-2H44a2 2 0 0 1 2 2zM37.6 34.47A3 3 0 0 0 35 30H27.33c.92-3.22 2.3-6-1.22-8.67a2.51 2.51 0 0 0-3.79 1C19 29.69 19.65 29 16.51 31.37 15.39 29.65 14.13 30 9 30a1 1 0 0 0-1 1V47a1 1 0 0 0 1 1h5a3 3 0 0 0 2.55-1.43C19.41 48.48 19.41 48 34 48a3 3 0 0 0 2.6-4.47 3 3 0 0 0 1-4A3 3 0 0 0 37.6 34.47zM15 45a1 1 0 0 1-1 1H10V32h4a1 1 0 0 1 1 1zm19 1c-15.88 0-14.09.41-17-1.54v-11c2.06-1.54 3.65-2.5 4.76-5 2.6-5.84 2.37-6.15 3.44-5.35a3 3 0 0 1 1.08 3.22L25 30.73A1 1 0 0 0 26 32h9a1 1 0 0 1 0 2H29a1 1 0 0 0 0 2h7a1 1 0 0 1 0 2H29a1 1 0 0 0 0 2h6a1 1 0 0 1 0 2H29a1 1 0 0 0 0 2h5A1 1 0 0 1 34 46z"></path><path d="M10 6a4 4 0 1 0 4 4A4 4 0 0 0 10 6zm0 6a2 2 0 1 1 2-2A2 2 0 0 1 10 12zM15.71 4.29a1 1 0 0 0-1.42 1.42A1 1 0 0 0 15.71 4.29zM41 4H40a4 4 0 0 0-4 4V9H35a1 1 0 0 0 0 2h1v4a1 1 0 0 0 2 0V11h2a1 1 0 0 0 0-2H38V8a2 2 0 0 1 2-2h1A1 1 0 0 0 41 4z"></path></g></svg>